IKResults
version=1
nRows=14
nColumns=44
inDegrees=yes

Units are S.I. units (second, meters, Newtons, ...)
Angles are in degrees.

endheader
time	ground_spine_rot_x	ground_spine_rot_y	ground_spine_rot_z	ground_spine_tx	ground_spine_ty	ground_spine_tz	clav_prot	clav_elev	scapula_abduction	scapula_elevation	scapula_upward_rot	scapula_winging	plane_elv	shoulder_elv	axial_rot	elbow_flexion	pro_sup	clav_prot_l	clav_elev_l	pitch2	roll2	yaw2	aux7jnt_r3	aux7jnt_r1	aux7jnt_r2	aux6jnt_r3	aux6jnt_r1	aux6jnt_r2	aux5jnt_r3	aux5jnt_r1	aux5jnt_r2	aux4jnt_r3	aux4jnt_r1	aux4jnt_r2	aux3jnt_r3	aux3jnt_r1	aux3jnt_r2	pitch1	roll1	yaw1	aux1jnt_r3	aux1jnt_r1	aux1jnt_r2
     43.13000000	     -2.58669058	     -4.12946776	      0.36805591	     -0.81478199	      1.09792629	      0.93672931	    -17.02513310	      0.41499699	     16.02848374	    -13.72429429	     11.99784207	     12.14373376	    -70.60389847	     36.45211968	     57.22555586	      0.00000000	     34.32000000	     30.42326055	     -1.16071730	      0.04603572	     -0.56220324	      0.25723254	      0.49324150	     -4.41302268	      2.77080738	      0.58028269	     -5.05726751	      3.22769394	      0.58028269	     -6.95775932	      3.22769394	      0.43521202	     -6.95775932	      3.22769394	      0.29014135	     -6.31353295	      1.38540369	     -0.23391658	     -0.07984927	      0.08650239	     -7.45174882	     -2.28751297	      0.55014169
     43.14000000	     -2.63587592	     -4.16012655	      0.38344766	     -0.81459335	      1.09796284	      0.93689711	    -16.99584488	      0.42845477	     16.06920657	    -13.70918462	     11.99845085	     12.11488364	    -70.55411239	     36.47969147	     57.05957881	      0.00000000	     34.32000000	     30.42326055	     -1.16071730	      0.04277796	     -0.56216640	      0.26672624	      0.45833680	     -4.41273350	      2.87306975	      0.53921845	     -5.05693612	      3.34681866	      0.53921845	     -6.95730340	      3.34681866	      0.40441383	     -6.95730340	      3.34681866	      0.26960922	     -6.31311923	      1.43653488	     -0.23442306	     -0.07950860	      0.07756641	     -7.46788354	     -2.27775367	      0.49331027
     43.15000000	     -2.68631071	     -4.13169048	      0.38980104	     -0.81441620	      1.09797770	      0.93702858	    -17.12772183	      0.43041244	     15.87062075	    -13.72149227	     11.99741279	     12.23256166	    -70.58968146	     36.58302444	     53.61415688	      0.00000000	     34.32000000	     30.42326055	     -1.16071730	      0.04846598	     -0.56302876	      0.24190762	      0.51928001	     -4.41950261	      2.60573340	      0.61091617	     -5.06469343	      3.03540043	      0.61091617	     -6.96797587	      3.03540043	      0.45818713	     -6.96797587	      3.03540043	      0.30545808	     -6.32280353	      1.30286670	     -0.23307661	     -0.08060564	      0.10377762	     -7.42499034	     -2.30918144	      0.66000944
     43.16000000	     -2.74822573	     -4.21322951	      0.37254013	     -0.81448028	      1.09797117	      0.93735057	    -16.90071714	      0.39682367	     16.22030528	    -13.72754170	     11.99948645	     12.03534319	    -70.52389567	     36.66831089	     50.42886670	      0.00000000	     34.32000000	     30.42326055	     -1.16071730	      0.05078072	     -0.56284205	      0.24068421	      0.54408087	     -4.41803708	      2.59255526	      0.64009358	     -5.06301396	      3.02004931	      0.64009358	     -6.96566525	      3.02004931	      0.48007018	     -6.96566525	      3.02004931	      0.32004679	     -6.32070685	      1.29627763	     -0.23459780	     -0.08048677	      0.10764672	     -7.47345035	     -2.30577607	      0.68461629
     43.17000000	     -2.78101639	     -4.21471337	      0.38399483	     -0.81430129	      1.09799678	      0.93743612	    -16.94375553	      0.42112037	     16.14852912	    -13.70993128	     11.99805922	     12.06976741	    -70.31620118	     36.58214974	     48.50676598	      0.00000000	     34.32000000	     30.42326055	     -1.16071730	      0.05331283	     -0.56306344	      0.23382167	      0.57121069	     -4.41977486	      2.51863474	      0.67201093	     -5.06500542	      2.93393982	      0.67201093	     -6.96840510	      2.93393982	      0.50400820	     -6.96840510	      2.93393982	      0.33600546	     -6.32319301	      1.25931737	     -0.23611167	     -0.08112642	      0.11529627	     -7.52167679	     -2.32410082	      0.73326628
     43.18000000	     -2.78492912	     -4.23012857	      0.39629693	     -0.81417248	      1.09803718	      0.93736987	    -16.97614718	      0.44693164	     16.09289891	    -13.69005612	     11.99743210	     12.09415486	    -70.25824147	     36.58531874	     56.74130964	      0.00000000	     34.32000000	     30.42326055	     -1.16071730	      0.04294575	     -0.56288377	      0.26410307	      0.46013452	     -4.41836451	      2.84481407	      0.54133340	     -5.06338919	      3.31390381	      0.54133340	     -6.96618149	      3.31390381	      0.40600005	     -6.96618149	      3.31390381	      0.27066670	     -6.32117530	      1.42240703	     -0.23530278	     -0.08082017	      0.08249251	     -7.49590819	     -2.31532732	      0.52463946
     43.19000000	     -2.80717198	     -4.21730050	      0.41432324	     -0.81394588	      1.09803710	      0.93736726	    -16.99725231	      0.45069033	     16.06095299	    -13.68920509	     11.99805738	     12.11215474	    -70.23955955	     36.68138871	     56.09472144	      0.00000000	     34.32000000	     30.42326055	     -1.16071730	      0.04232989	     -0.56282699	      0.26552339	      0.45353598	     -4.41791881	      2.86011312	      0.53357044	     -5.06287841	      3.33172557	      0.53357044	     -6.96547877	      3.33172557	      0.40017783	     -6.96547877	      3.33172557	      0.26678522	     -6.32053764	      1.43005656	     -0.23555286	     -0.08068274	      0.08059627	     -7.50387506	     -2.31139015	      0.51257971
     43.20000000	     -2.82148383	     -4.23574462	      0.41967350	     -0.81382048	      1.09804181	      0.93740193	    -17.01098062	      0.47898072	     16.03351632	    -13.66544393	     11.99857632	     12.11907456	    -70.25713948	     36.60223110	     56.80203841	      0.00000000	     34.32000000	     30.42326055	     -1.16071730	      0.04102220	     -0.56275737	      0.26701607	      0.43952494	     -4.41737238	      2.87619170	      0.51708690	     -5.06225222	      3.35045540	      0.51708690	     -6.96461725	      3.35045540	      0.38781517	     -6.96461725	      3.35045540	      0.25854345	     -6.31975589	      1.43809585	     -0.23411924	     -0.08069200	      0.07866286	     -7.45820496	     -2.31165541	      0.50028351
     43.21000000	     -2.83047869	     -4.25572155	      0.41244081	     -0.81378696	      1.09805572	      0.93739061	    -17.02911888	      0.46055850	     16.01153044	    -13.68411447	     11.99891356	     12.13857920	    -70.13835791	     36.66238898	     56.80814984	      0.00000000	     34.32000000	     30.42326055	     -1.16071730	      0.04185271	     -0.56277193	      0.26802915	      0.44842338	     -4.41748664	      2.88710423	      0.52755563	     -5.06238315	      3.36316733	      0.52755563	     -6.96479739	      3.36316733	      0.39566672	     -6.96479739	      3.36316733	      0.26377781	     -6.31991935	      1.44355212	     -0.23433269	     -0.08067959	      0.07763534	     -7.46500461	     -2.31129997	      0.49374860
     43.22000000	     -2.83143237	     -4.27195823	      0.42151373	     -0.81361684	      1.09804208	      0.93737138	    -17.04329442	      0.46377470	     15.98950884	    -13.68277084	     11.99890776	     12.15065906	    -70.04172244	     36.65066844	     56.85038258	      0.00000000	     34.32000000	     30.42326055	     -1.16071730	      0.04154241	     -0.56277409	      0.26961651	      0.44509869	     -4.41750359	      2.90420257	      0.52364423	     -5.06240258	      3.38308506	      0.52364423	     -6.96482412	      3.38308506	      0.39273317	     -6.96482412	      3.38308506	      0.26182211	     -6.31994360	      1.45210128	     -0.23360706	     -0.08065773	      0.07541627	     -7.44188869	     -2.31067371	      0.47963572
     43.23000000	     -2.80871745	     -4.28568561	      0.43487725	     -0.81341667	      1.09803680	      0.93715793	    -17.05310431	      0.49036648	     15.96751893	    -13.65975267	     11.99842340	     12.15469296	    -70.01604670	     36.67514064	     56.64384137	      0.00000000	     34.32000000	     30.42326055	     -1.16071730	      0.04105609	     -0.56259653	      0.27173354	      0.43988815	     -4.41610986	      2.92700640	      0.51751420	     -5.06080538	      3.40964908	      0.51751420	     -6.96262670	      3.40964908	      0.38813565	     -6.96262670	      3.40964908	      0.25875710	     -6.31794965	      1.46350320	     -0.23345263	     -0.08033935	      0.07250079	     -7.43696903	     -2.30155286	      0.46109366
     43.24000000	     -2.81024123	     -4.31792232	      0.41156037	     -0.81349341	      1.09800361	      0.93716448	    -17.03102499	      0.48011266	     16.00324762	    -13.66657873	     11.99850159	     12.13682742	    -69.95229636	     36.66701806	     56.64563689	      0.00000000	     34.32000000	     30.42326055	     -1.16071730	      0.04419672	     -0.56244417	      0.26555188	      0.47353779	     -4.41491393	      2.86041999	      0.55710191	     -5.05943486	      3.33208304	      0.55710191	     -6.96074115	      3.33208304	      0.41782643	     -6.96074115	      3.33208304	      0.27855096	     -6.31623868	      1.43020999	     -0.23269472	     -0.08021595	      0.07884674	     -7.41282477	     -2.29801760	      0.50145293
     43.25000000	     -2.81579848	     -4.34510539	      0.39641679	     -0.81344520	      1.09801759	      0.93716061	    -17.01330060	      0.43452802	     16.04275510	    -13.70611196	     11.99981968	     12.12897623	    -69.81930855	     36.80217406	     47.41217717	      0.00000000	     34.32000000	     30.42326055	     -1.16071730	      0.05318494	     -0.56275360	      0.23908711	      0.56984044	     -4.41734278	      2.57535198	      0.67039887	     -5.06221829	      3.00000934	      0.67039887	     -6.96457058	      3.00000934	      0.50279915	     -6.96457058	      3.00000934	      0.33519944	     -6.31971354	      1.28767599	     -0.23169543	     -0.07998872	      0.10703890	     -7.38099098	     -2.29150808	      0.68075065
     43.26000000	     -2.76889694	     -4.34398036	      0.40097936	     -0.81330943	      1.09800155	      0.93681818	    -17.07973539	      0.49497809	     15.92649598	    -13.65854282	     11.99853165	     12.17755857	    -69.87376337	     36.69430539	     56.36942656	      0.00000000	     34.32000000	     30.42326055	     -1.16071730	      0.04788267	     -0.56221203	      0.25862841	      0.51303023	     -4.41309172	      2.78584314	      0.60356350	     -5.05734663	      3.24520899	      0.60356350	     -6.95786818	      3.24520899	      0.45267262	     -6.95786818	      3.24520899	      0.30178175	     -6.31363172	      1.39292157	     -0.23159186	     -0.07979428	      0.08461354	     -7.37769175	     -2.28593769	      0.53812892
